<svg width="601" height="100" viewBox="0 0 601 100" fill="none" xmlns="http://www.w3.org/2000/svg">
<path d="M161.258 54.5338C161.258 36.1449 173.067 23.3232 189.432 23.3232C205.796 23.3232 217.606 36.1449 217.606 54.5338C217.606 72.9227 205.796 85.7444 189.432 85.7444C173.067 85.7444 161.258 72.9227 161.258 54.5338ZM206.809 54.5338C206.809 41.3747 199.639 32.8551 189.432 32.8551C179.225 32.8551 172.055 41.3747 172.055 54.5338C172.055 67.6928 179.225 76.2125 189.432 76.2125C199.639 76.2125 206.809 67.6928 206.809 54.5338Z" fill="black"/>
<path d="M247.591 85.7444C241.855 85.7444 237.637 83.4668 234.853 80.1771V100H224.731V40.5312H234.853V45.255C237.637 41.9652 241.855 39.6877 247.591 39.6877C259.99 39.6877 267.076 50.1474 267.076 62.716C267.076 75.2846 259.99 85.7444 247.591 85.7444ZM234.6 61.4507V64.0657C234.6 72.2479 239.324 76.8873 245.566 76.8873C252.905 76.8873 256.869 71.1513 256.869 62.716C256.869 54.2807 252.905 48.5447 245.566 48.5447C239.324 48.5447 234.6 53.0998 234.6 61.4507Z" fill="black"/>
<path d="M292.781 85.7444C280.128 85.7444 271.271 76.3812 271.271 62.716C271.271 49.7257 280.043 39.6877 292.359 39.6877C305.181 39.6877 312.013 49.3883 312.013 61.5351V64.9092H280.971C281.73 72.501 286.286 77.1404 292.781 77.1404C297.758 77.1404 301.722 74.6098 303.072 70.0547L311.76 73.3445C308.639 81.105 301.638 85.7444 292.781 85.7444ZM292.275 48.2073C287.045 48.2073 282.996 51.3284 281.477 57.3174H301.806C301.722 52.425 298.685 48.2073 292.275 48.2073Z" fill="black"/>
<path d="M318.765 84.8165V40.5312H328.887V45.255C331.418 42.3026 335.382 39.6877 341.118 39.6877C350.397 39.6877 355.964 46.0985 355.964 55.6304V84.8165H345.842V58.5827C345.842 53.0998 343.649 49.1352 338.082 49.1352C333.526 49.1352 328.887 52.5093 328.887 58.8358V84.8165H318.765Z" fill="black"/>
<path d="M405.688 24.2511H416.486V84.8165H405.688V58.3297H376.671V84.8165H365.874V24.2511H376.671V48.8821H405.688V24.2511Z" fill="black"/>
<path d="M438.445 85.5757C430.01 85.5757 423.515 80.4301 423.515 72.501C423.515 64.0657 429.841 60.3541 438.361 58.5827L450.592 56.0521V55.293C450.592 51.0753 448.399 48.4604 443 48.4604C438.192 48.4604 435.661 50.6536 434.48 54.9556L424.949 52.7624C427.142 45.4237 433.637 39.6877 443.422 39.6877C454.05 39.6877 460.461 44.7489 460.461 54.9556V74.0193C460.461 76.5499 461.558 77.3091 464.341 76.9717V84.8165C457.003 85.66 453.122 84.226 451.604 80.5988C448.82 83.7199 444.181 85.5757 438.445 85.5757ZM450.592 69.2112V63.8126L441.06 65.8371C436.758 66.765 433.553 68.1146 433.553 72.0792C433.553 75.5377 436.083 77.4778 439.963 77.4778C445.362 77.4778 450.592 74.6098 450.592 69.2112Z" fill="black"/>
<path d="M470.689 84.8165V40.5312H480.811V45.255C483.342 42.3026 487.306 39.6877 493.042 39.6877C502.321 39.6877 507.889 46.0985 507.889 55.6304V84.8165H497.766V58.5827C497.766 53.0998 495.573 49.1352 490.006 49.1352C485.451 49.1352 480.811 52.5093 480.811 58.8358V84.8165H470.689Z" fill="black"/>
<path d="M534.078 85.7444C521.678 85.7444 514.593 75.2846 514.593 62.716C514.593 50.1474 521.678 39.6877 534.078 39.6877C539.814 39.6877 544.032 41.9652 546.815 45.255V24.2511H556.938V84.8165H546.815V80.1771C544.032 83.4668 539.814 85.7444 534.078 85.7444ZM547.068 61.4507C547.068 53.0998 542.345 48.5447 536.103 48.5447C528.764 48.5447 524.799 54.2807 524.799 62.716C524.799 71.1513 528.764 76.8873 536.103 76.8873C542.345 76.8873 547.068 72.2479 547.068 64.0657V61.4507Z" fill="black"/>
<path d="M562.06 76.3812L569.652 70.3078C572.267 74.6098 577.328 77.4778 582.474 77.4778C586.776 77.4778 590.74 75.9594 590.74 71.9948C590.74 68.199 587.029 67.7772 580.027 66.3432C573.026 64.9092 565.013 63.1378 565.013 53.6903C565.013 45.5924 572.098 39.6877 582.305 39.6877C590.065 39.6877 596.982 43.1461 600.188 48.0386L593.355 54.1964C590.825 50.2318 586.607 47.9543 581.714 47.9543C577.581 47.9543 574.882 49.81 574.882 52.7624C574.882 55.9678 578.087 56.5583 583.655 57.7392C591.162 59.3419 600.609 60.9446 600.609 71.067C600.609 80.0084 592.427 85.7444 582.389 85.7444C574.207 85.7444 566.025 82.4546 562.06 76.3812Z" fill="black"/>
<path d="M66.4861 15.625V2.75583C66.4861 1.68971 67.3506 0.825162 68.4167 0.825162C69.4829 0.825162 70.3474 1.68971 70.3474 2.75583V15.625C70.3474 16.6911 69.4829 17.5556 68.4167 17.5556C67.3506 17.5556 66.4861 16.6911 66.4861 15.625Z" fill="black"/>
<path d="M76.4683 17.5429L82.9028 6.39789C83.4359 5.47461 84.6169 5.15816 85.5402 5.69122C86.4635 6.22428 86.7799 7.40527 86.2468 8.32856L79.8123 19.4736C79.2792 20.3968 78.0982 20.7133 77.1749 20.1802C76.2516 19.6472 75.9352 18.4662 76.4683 17.5429Z" fill="black"/>
<path d="M60.3652 17.5429L53.9307 6.39789C53.3976 5.47461 52.2166 5.15816 51.2933 5.69122C50.37 6.22428 50.0536 7.40527 50.5867 8.32856L57.0212 19.4736C57.5543 20.3968 58.7353 20.7133 59.6586 20.1802C60.5818 19.6472 60.8983 18.4662 60.3652 17.5429Z" fill="black"/>
<path d="M130.283 57.4751C130.283 54.1207 131.188 44.1746 131.472 40.8921C131.665 38.6731 131.398 37.4568 131.041 36.8355C130.779 36.38 130.369 36.0579 129.382 35.9917C128.67 35.944 127.893 36.1472 127.313 36.6705C126.77 37.1607 126.163 38.1457 126.163 40.1373L126.159 40.2496L125.272 55.3707C125.24 55.9147 124.98 56.4206 124.555 56.7623C124.131 57.1038 123.582 57.2497 123.044 57.1646L113.751 55.6939L103.729 54.3628C102.803 54.2399 102.099 53.4716 102.055 52.5386L101.517 40.8921C101.493 40.4184 101.47 39.9487 101.446 39.4859C101.22 35.1446 101.018 31.3004 101.018 30.0474C101.018 26.3018 100.384 24.7218 99.8298 24.0572C99.3879 23.5273 98.7528 23.2945 97.3932 23.2945C96.9048 23.2945 96.561 23.3945 96.3024 23.5455C96.0483 23.694 95.759 23.9602 95.4831 24.481C94.8917 25.5974 94.4606 27.6965 94.6208 31.3628C94.8286 36.1185 95.1528 39.6713 95.4704 42.8746C95.7875 46.0725 96.1034 48.9755 96.279 52.3492C96.5538 57.6302 96.5292 61.2707 96.3132 63.7417C96.2053 64.9756 96.0454 65.9722 95.8298 66.7603C95.6255 67.5068 95.3189 68.2666 94.7858 68.8345C94.1407 69.5217 93.2214 69.8498 92.2663 69.6197C91.5085 69.437 90.9762 68.9576 90.6852 68.6519C90.0769 68.0126 89.647 67.187 89.4782 66.7613C88.4976 64.2873 85.4635 58.5421 81.3561 55.2994C80.1576 54.3532 79.2845 54.0801 78.735 54.0386C78.2173 53.9996 77.8417 54.1528 77.5466 54.3873C77.2214 54.6457 76.9787 55.0214 76.8581 55.3765C76.8155 55.5021 76.7973 55.5919 76.7897 55.649C77.9033 57.5282 82.3195 64.418 84.402 71.4107C85.9542 76.6228 89.6967 81.9338 92.4909 84.2085C95.1967 86.4112 100.06 87.7763 105.538 88.0455C110.963 88.312 116.553 87.4805 120.486 85.7173C128.084 82.3114 129.631 74.8106 130.325 71.5591C130.863 69.0357 130.873 66.342 130.729 63.8423C130.657 62.5953 130.55 61.4295 130.457 60.355C130.366 59.3109 130.283 58.3019 130.283 57.4751ZM112.103 25.106C112.103 23.9349 111.79 22.8911 111.272 22.1929C110.804 21.5616 110.115 21.1248 109.008 21.1246C108.103 21.1244 107.493 21.2361 107.063 21.4195C106.677 21.584 106.354 21.8394 106.059 22.315C105.38 23.412 104.882 25.6158 104.879 30.0064L105.372 40.6851C105.547 44.0739 105.729 47.7118 105.848 50.7496L112.103 51.5796V25.106ZM115.965 52.1343L121.542 53.0171L122.301 40.0904V30.1216C122.301 28.7527 121.744 27.9156 121.084 27.3794C120.348 26.7819 119.489 26.5679 119.084 26.5679C118.345 26.5679 117.582 26.6827 117.033 27.0728C116.61 27.3732 115.965 28.0835 115.965 30.1216V52.1343ZM126.163 32.8267C127.318 32.2514 128.554 32.0674 129.64 32.1402C131.609 32.2721 133.345 33.0957 134.388 34.9117C135.337 36.5621 135.534 38.7437 135.319 41.2261C135.022 44.6565 134.143 54.3401 134.143 57.4751C134.143 58.1041 134.209 58.9413 134.302 60.0201C134.394 61.0682 134.508 62.3023 134.584 63.6197C134.735 66.2494 134.745 69.3438 134.101 72.3648C133.43 75.5121 131.613 84.96 122.066 89.2398C117.427 91.3194 111.192 92.189 105.348 91.9019C99.5569 91.6174 93.7033 90.1739 90.0534 87.2027C86.6178 84.4057 82.4601 78.4173 80.7018 72.5132C78.7159 65.8447 74.4147 59.2684 73.3415 57.4048C72.7095 56.3073 72.9072 55.0044 73.2018 54.1363C73.5343 53.1569 74.178 52.1323 75.1452 51.3638C76.1427 50.5714 77.4663 50.0703 79.0261 50.188C80.5542 50.3034 82.1381 50.9984 83.7477 52.2691C87.8902 55.5394 90.9294 60.6987 92.4196 63.8628C92.435 63.7177 92.4535 63.5657 92.4675 63.4058C92.6608 61.1947 92.6946 57.7579 92.4235 52.5494C92.2538 49.2888 91.95 46.4967 91.6286 43.2554C91.3077 40.0194 90.9756 36.3881 90.7634 31.5318C90.594 27.6567 90.9915 24.714 92.072 22.6744C92.6319 21.6173 93.3899 20.7761 94.3542 20.2125C95.3139 19.6516 96.3598 19.4341 97.3932 19.4341C98.9207 19.4341 100.824 19.6493 102.34 21.0962C102.473 20.8088 102.619 20.5379 102.777 20.2828C103.477 19.1523 104.408 18.3541 105.549 17.8677C106.645 17.4004 107.833 17.2631 109.008 17.2632C111.37 17.2636 113.195 18.3062 114.372 19.8921C115.133 20.9185 115.592 22.1245 115.809 23.3482C117.062 22.7824 118.316 22.7076 119.084 22.7076C120.393 22.7076 122.108 23.2378 123.518 24.3834C125.004 25.5903 126.163 27.4947 126.163 30.1216V32.8267Z" fill="black"/>
<path d="M6.63117 57.4751C6.63117 54.1207 5.72621 44.1746 5.44172 40.8921C5.24944 38.6731 5.51646 37.4568 5.87336 36.8355C6.13503 36.38 6.54477 36.0579 7.53156 35.9917C8.24433 35.944 9.02067 36.1472 9.6009 36.6705C10.1446 37.1607 10.7513 38.1457 10.7513 40.1373L10.7552 40.2496L11.6419 55.3707C11.6738 55.9147 11.9342 56.4206 12.3587 56.7623C12.7832 57.1038 13.3323 57.2497 13.8704 57.1646L23.1634 55.6939L33.1849 54.3628C34.1108 54.2399 34.8154 53.4716 34.8587 52.5386L35.3968 40.8921C35.4213 40.4184 35.444 39.9487 35.4681 39.4859C35.6936 35.1446 35.8958 31.3004 35.8958 30.0474C35.8958 26.3018 36.5301 24.7218 37.0843 24.0572C37.5262 23.5273 38.1613 23.2945 39.5208 23.2945C40.0093 23.2945 40.3531 23.3945 40.6116 23.5455C40.8657 23.694 41.155 23.9602 41.431 24.481C42.0224 25.5974 42.4535 27.6965 42.2933 31.3628C42.0854 36.1185 41.7613 39.6713 41.4437 42.8746C41.1266 46.0725 40.8107 48.9755 40.6351 52.3492C40.3602 57.6302 40.3848 61.2707 40.6009 63.7417C40.7088 64.9756 40.8686 65.9722 41.0843 66.7603C41.2886 67.5068 41.5952 68.2666 42.1282 68.8345C42.7733 69.5217 43.6926 69.8498 44.6478 69.6197C45.4055 69.437 45.9379 68.9576 46.2288 68.6519C46.8372 68.0126 47.2671 67.187 47.4359 66.7613C48.4164 64.2873 51.4505 58.5421 55.5579 55.2994C56.7564 54.3532 57.6295 54.0801 58.179 54.0386C58.6967 53.9996 59.0724 54.1528 59.3675 54.3873C59.6927 54.6457 59.9353 55.0214 60.056 55.3765C60.0986 55.5021 60.1167 55.5919 60.1243 55.649C59.0108 57.5282 54.5946 64.418 52.512 71.4107C50.9599 76.6228 47.2173 81.9338 44.4232 84.2085C41.7174 86.4112 36.8545 87.7763 31.3763 88.0455C25.9506 88.312 20.3614 87.4805 16.428 85.7173C8.8302 82.3114 7.28256 74.8106 6.58918 71.5591C6.05107 69.0357 6.04084 66.342 6.18488 63.8423C6.25674 62.5953 6.36383 61.4295 6.45734 60.355C6.54821 59.3109 6.63117 58.3019 6.63117 57.4751ZM24.8109 25.106C24.8109 23.9349 25.124 22.8911 25.6419 22.1929C26.1104 21.5616 26.7987 21.1248 27.9056 21.1246C28.8113 21.1244 29.4206 21.2361 29.8509 21.4195C30.2368 21.584 30.5602 21.8394 30.8548 22.315C31.5342 23.412 32.0324 25.6158 32.0355 30.0064L31.5423 40.6851C31.367 44.0739 31.1855 47.7118 31.0657 50.7496L24.8109 51.5796V25.106ZM20.9495 52.1343L15.3724 53.0171L14.6126 40.0904V30.1216C14.6126 28.7527 15.1705 27.9156 15.8304 27.3794C16.5659 26.7819 17.4251 26.5679 17.8304 26.5679C18.5691 26.5679 19.3317 26.6827 19.8812 27.0728C20.3042 27.3732 20.9495 28.0835 20.9495 30.1216V52.1343ZM10.7513 32.8267C9.59639 32.2514 8.36021 32.0674 7.27375 32.1402C5.30505 32.2721 3.56915 33.0957 2.5257 34.9117C1.57747 36.5621 1.37989 38.7437 1.59504 41.2261C1.89235 44.6565 2.77082 54.3401 2.77082 57.4751C2.77082 58.1041 2.70552 58.9413 2.61164 60.0201C2.52042 61.0682 2.40631 62.3023 2.33039 63.6197C2.17884 66.2494 2.16857 69.3438 2.81281 72.3648C3.48398 75.5121 5.30146 84.96 14.848 89.2398C19.487 91.3194 25.722 92.189 31.5657 91.9019C37.3572 91.6174 43.2107 90.1739 46.8607 87.2027C50.2963 84.4057 54.4539 78.4173 56.2122 72.5132C58.1981 65.8447 62.4994 59.2684 63.5726 57.4048C64.2046 56.3073 64.0069 55.0044 63.7122 54.1363C63.3798 53.1569 62.7361 52.1323 61.7689 51.3638C60.7714 50.5714 59.4478 50.0703 57.888 50.188C56.3599 50.3034 54.776 50.9984 53.1663 52.2691C49.0239 55.5394 45.9846 60.6987 44.4945 63.8628C44.4791 63.7177 44.4606 63.5657 44.4466 63.4058C44.2532 61.1947 44.2195 57.7579 44.4905 52.5494C44.6603 49.2888 44.9641 46.4967 45.2855 43.2554C45.6063 40.0194 45.9385 36.3881 46.1507 31.5318C46.3201 27.6567 45.9225 24.714 44.8421 22.6744C44.2821 21.6173 43.5242 20.7761 42.5599 20.2125C41.6002 19.6516 40.5542 19.4341 39.5208 19.4341C37.9933 19.4341 36.0901 19.6493 34.5745 21.0962C34.4409 20.8088 34.295 20.5379 34.137 20.2828C33.4369 19.1523 32.506 18.3541 31.3655 17.8677C30.2695 17.4004 29.0806 17.2631 27.9056 17.2632C25.5438 17.2636 23.7192 18.3062 22.5423 19.8921C21.7808 20.9185 21.3225 22.1245 21.1048 23.3482C19.8517 22.7824 18.5981 22.7076 17.8304 22.7076C16.5208 22.7076 14.8057 23.2378 13.3958 24.3834C11.9105 25.5903 10.7513 27.4947 10.7513 30.1216V32.8267Z" fill="black"/>
</svg>
